<svg width="124" height="32" viewBox="0 0 124 32" fill="none" xmlns="http://www.w3.org/2000/svg">
<path d="M12.6787 9.73535L21.1335 23.8858H4.22397L12.6787 9.73535Z" fill="black"/>
<path d="M26.7189 16.9736L19.7841 5.53812L33.6537 5.53812L26.7189 16.9736Z" fill="black"/>
<path d="M110.286 15.5576C110.286 14.2489 110.581 13.0968 111.171 12.1015C111.779 11.1061 112.599 10.332 113.632 9.77899C114.664 9.20758 115.834 8.92188 117.143 8.92188C118.452 8.92188 119.613 9.20758 120.627 9.77899C121.659 10.332 122.479 11.1061 123.088 12.1015C123.696 13.0968 124 14.2489 124 15.5576C124 16.8479 123.696 17.9999 123.088 19.0137C122.479 20.0091 121.659 20.7924 120.627 21.3638C119.613 21.9168 118.452 22.1933 117.143 22.1933C115.834 22.1933 114.664 21.9168 113.632 21.3638C112.599 20.7924 111.779 20.0091 111.171 19.0137C110.581 17.9999 110.286 16.8479 110.286 15.5576ZM113.355 15.5576C113.355 16.3502 113.521 17.0506 113.853 17.6589C114.185 18.2487 114.636 18.7188 115.208 19.069C115.779 19.4008 116.424 19.5667 117.143 19.5667C117.843 19.5667 118.479 19.4008 119.051 19.069C119.641 18.7188 120.101 18.2487 120.433 17.6589C120.765 17.0506 120.931 16.3502 120.931 15.5576C120.931 14.765 120.765 14.0646 120.433 13.4563C120.101 12.848 119.641 12.378 119.051 12.0462C118.479 11.7144 117.843 11.5485 117.143 11.5485C116.424 11.5485 115.779 11.7144 115.208 12.0462C114.636 12.378 114.185 12.848 113.853 13.4563C113.521 14.0646 113.355 14.765 113.355 15.5576Z" fill="black"/>
<path d="M96.5986 9.19922H99.8612L103.179 17.4109L106.497 9.19922H109.787L103.179 23.0789L96.5986 9.19922Z" fill="black"/>
<path d="M82.3936 15.5576C82.3936 14.2489 82.6885 13.0968 83.2783 12.1015C83.8866 11.1061 84.7068 10.332 85.7391 9.77899C86.7713 9.20758 87.9418 8.92188 89.2505 8.92188C90.5592 8.92188 91.7204 9.20758 92.7342 9.77899C93.7665 10.332 94.5867 11.1061 95.195 12.1015C95.8033 13.0968 96.1074 14.2489 96.1074 15.5576C96.1074 16.8479 95.8033 17.9999 95.195 19.0137C94.5867 20.0091 93.7665 20.7924 92.7342 21.3638C91.7204 21.9168 90.5592 22.1933 89.2505 22.1933C87.9418 22.1933 86.7713 21.9168 85.7391 21.3638C84.7068 20.7924 83.8866 20.0091 83.2783 19.0137C82.6885 17.9999 82.3936 16.8479 82.3936 15.5576ZM85.4626 15.5576C85.4626 16.3502 85.6285 17.0506 85.9603 17.6589C86.292 18.2487 86.7436 18.7188 87.3151 19.069C87.8865 19.4008 88.5316 19.5667 89.2505 19.5667C89.9509 19.5667 90.5868 19.4008 91.1583 19.069C91.7481 18.7188 92.2089 18.2487 92.5407 17.6589C92.8725 17.0506 93.0384 16.3502 93.0384 15.5576C93.0384 14.765 92.8725 14.0646 92.5407 13.4563C92.2089 12.848 91.7481 12.378 91.1583 12.0462C90.5868 11.7144 89.9509 11.5485 89.2505 11.5485C88.5316 11.5485 87.8865 11.7144 87.3151 12.0462C86.7436 12.378 86.292 12.848 85.9603 13.4563C85.6285 14.0646 85.4626 14.765 85.4626 15.5576Z" fill="black"/>
<path d="M76.478 14.1752C76.478 13.2351 76.2845 12.5254 75.8974 12.0462C75.5103 11.5669 74.9113 11.3273 74.1002 11.3273C73.5472 11.3273 73.0588 11.4471 72.6348 11.6868C72.2109 11.9079 71.8791 12.2397 71.6395 12.6821C71.3998 13.1061 71.28 13.6037 71.28 14.1752V21.9168H68.2939V9.19836H71.28V11.1614C71.6855 10.4057 72.2017 9.8435 72.8284 9.47485C73.4735 9.1062 74.2385 8.92188 75.1232 8.92188C76.561 8.92188 77.6577 9.36426 78.4134 10.249C79.1692 11.1153 79.5471 12.3135 79.5471 13.8434V21.9168H76.478V14.1752Z" fill="black"/>
<path d="M57.1472 17.7418C57.5527 18.1842 57.9582 18.5713 58.3637 18.9031C58.7877 19.2165 59.2116 19.4561 59.6356 19.622C60.0595 19.7694 60.4835 19.8432 60.9074 19.8432C61.442 19.8432 61.8567 19.7233 62.1516 19.4837C62.465 19.2441 62.6216 18.9123 62.6216 18.4884C62.6216 18.1197 62.5018 17.8064 62.2622 17.5483C62.0226 17.2718 61.6908 17.0414 61.2668 16.8571C60.8429 16.6543 60.3452 16.4516 59.7738 16.2488C59.2024 16.0276 58.631 15.7696 58.0596 15.4746C57.5066 15.1613 57.0458 14.7558 56.6771 14.2581C56.3269 13.7604 56.1518 13.1337 56.1518 12.378C56.1518 11.6038 56.3453 10.9587 56.7324 10.4426C57.1379 9.92645 57.6725 9.54858 58.3361 9.30896C59.0181 9.0509 59.7462 8.92188 60.5203 8.92188C61.2208 8.92188 61.8751 9.02325 62.4834 9.22601C63.1101 9.42877 63.6723 9.69604 64.17 10.0278C64.6677 10.3596 65.0916 10.7375 65.4418 11.1614L63.7829 12.931C63.3589 12.4333 62.852 12.0278 62.2622 11.7144C61.6724 11.4011 61.0641 11.2444 60.4374 11.2444C60.0134 11.2444 59.6632 11.3365 59.3867 11.5209C59.1102 11.7052 58.972 11.9725 58.972 12.3227C58.972 12.6176 59.0918 12.8849 59.3314 13.1245C59.5895 13.3457 59.9213 13.5484 60.3268 13.7328C60.7507 13.9171 61.2208 14.1106 61.7369 14.3134C62.4373 14.5899 63.0825 14.894 63.6723 15.2258C64.2621 15.5576 64.7322 15.9631 65.0824 16.4424C65.451 16.9216 65.6354 17.5483 65.6354 18.3225C65.6354 19.5206 65.2206 20.4883 64.3912 21.2256C63.5801 21.9445 62.4742 22.3039 61.0733 22.3039C60.207 22.3039 59.4051 22.1749 58.6678 21.9168C57.949 21.6403 57.313 21.2901 56.7601 20.8662C56.2255 20.4238 55.7739 19.963 55.4053 19.4837L57.1472 17.7418Z" fill="black"/>
<path d="M40.0244 15.5576C40.0244 14.2489 40.3193 13.0968 40.9092 12.1015C41.5175 11.1061 42.3377 10.332 43.3699 9.77899C44.4022 9.20758 45.5726 8.92188 46.8813 8.92188C48.1901 8.92188 49.3513 9.20758 50.3651 9.77899C51.3973 10.332 52.2176 11.1061 52.8259 12.1015C53.4341 13.0968 53.7383 14.2489 53.7383 15.5576C53.7383 16.8479 53.4341 17.9999 52.8259 19.0137C52.2176 20.0091 51.3973 20.7924 50.3651 21.3638C49.3513 21.9168 48.1901 22.1933 46.8813 22.1933C45.5726 22.1933 44.4022 21.9168 43.3699 21.3638C42.3377 20.7924 41.5175 20.0091 40.9092 19.0137C40.3193 17.9999 40.0244 16.8479 40.0244 15.5576ZM43.0934 15.5576C43.0934 16.3502 43.2593 17.0506 43.5911 17.6589C43.9229 18.2487 44.3745 18.7188 44.9459 19.069C45.5173 19.4008 46.1625 19.5667 46.8813 19.5667C47.5818 19.5667 48.2177 19.4008 48.7891 19.069C49.379 18.7188 49.8398 18.2487 50.1716 17.6589C50.5034 17.0506 50.6692 16.3502 50.6692 15.5576C50.6692 14.765 50.5034 14.0646 50.1716 13.4563C49.8398 12.848 49.379 12.378 48.7891 12.0462C48.2177 11.7144 47.5818 11.5485 46.8813 11.5485C46.1625 11.5485 45.5173 11.7144 44.9459 12.0462C44.3745 12.378 43.9229 12.848 43.5911 13.4563C43.2593 14.0646 43.0934 14.765 43.0934 15.5576Z" fill="black"/>
</svg>
